<?xml version="1.0" standalone="no"?>
<!DOCTYPE svg PUBLIC "-//W3C//DTD SVG 20010904//EN"
 "http://www.w3.org/TR/2001/REC-SVG-20010904/DTD/svg10.dtd">
<svg version="1.0" xmlns="http://www.w3.org/2000/svg"
 width="1343.000000pt" height="994.000000pt" viewBox="0 0 1343.000000 994.000000"
 preserveAspectRatio="xMidYMid meet">
<metadata>
Created by potrace 1.16, written by Peter Selinger 2001-2019
</metadata>
<g transform="translate(0.000000,994.000000) scale(0.100000,-0.100000)"
fill="#000000" stroke="none">
<path d="M3378 6868 c-1 -227 -2 -474 -1 -548 0 -74 1 -586 2 -1137 l1 -1003
30 0 30 0 0 1550 0 1550 -30 0 -30 0 -2 -412z"/>
<path d="M7010 6296 c0 -179 2 -186 41 -186 5 0 9 77 9 180 l0 180 -25 0 -25
0 0 -174z"/>
<path d="M7010 5875 c0 -147 -4 -235 -10 -235 -5 0 -18 -17 -29 -38 -21 -42
-46 -62 -100 -80 -58 -20 -71 -39 -71 -99 0 -41 -6 -63 -25 -91 -46 -67 -33
-99 48 -116 15 -4 27 -12 27 -20 0 -7 6 -19 14 -25 19 -16 31 2 56 82 13 43
33 79 55 102 29 32 38 35 67 30 20 -4 47 0 70 9 63 27 104 -3 118 -84 4 -28
11 -36 32 -40 16 -3 37 -19 51 -40 21 -32 28 -35 66 -33 24 1 46 4 49 7 3 3
-1 24 -8 45 -12 36 -11 42 9 67 42 54 25 91 -107 231 -42 45 -42 46 -95 40
-40 -5 -64 -1 -107 16 l-55 22 -5 234 c-5 231 -5 234 -27 242 l-23 8 0 -234z"/>
<path d="M5106 5337 c-14 -14 -33 -43 -41 -65 -13 -32 -26 -44 -76 -68 -67
-31 -109 -68 -109 -93 0 -9 14 -34 32 -55 l31 -38 14 44 c8 23 19 47 24 52 14
15 152 -65 246 -143 62 -51 76 -87 68 -175 -7 -73 10 -146 34 -146 25 0 41
-33 41 -85 0 -89 49 -116 126 -69 92 58 105 63 129 52 12 -5 41 -40 65 -76 57
-88 79 -112 105 -112 41 0 46 21 12 44 -18 12 -43 44 -57 71 -21 43 -25 68
-30 184 -3 92 -9 136 -17 138 -34 12 -80 53 -96 88 -11 21 -39 99 -64 173 -74
223 -114 267 -263 284 -41 4 -92 11 -112 14 -31 5 -41 2 -62 -19z"/>
<path d="M9190 4288 c1 -591 3 -707 15 -728 13 -22 14 66 12 699 -2 569 -5
725 -14 729 -10 3 -13 -141 -13 -700z"/>
<path d="M6649 4944 c-15 -5 -30 -50 -172 -543 l-34 -115 20 -50 c21 -53 30
-202 15 -239 -7 -16 -10 -16 -45 6 -21 13 -43 27 -50 31 -8 4 -17 -10 -28 -46
l-15 -52 36 -37 c42 -43 38 -60 -20 -100 -34 -23 -36 -27 -36 -81 l0 -57 48
16 c61 21 147 108 185 185 46 97 60 169 55 293 -5 116 -32 211 -78 276 l-21
29 22 33 c13 17 69 93 124 167 107 141 170 244 161 259 -3 5 -27 12 -53 15
-27 4 -59 8 -73 10 -14 2 -32 2 -41 0z"/>
<path d="M7130 4863 c-71 -157 -344 -935 -385 -1097 -14 -54 -30 -138 -37
-186 -10 -77 -9 -93 6 -136 31 -89 36 -118 36 -241 l0 -123 24 0 c37 0 83 61
143 188 29 62 53 116 53 120 0 5 11 36 25 70 14 34 25 64 25 66 0 2 -24 4 -53
4 -63 -1 -114 23 -123 56 -9 36 18 77 98 150 61 56 84 70 143 87 39 12 75 25
81 30 6 5 33 60 60 124 27 63 52 115 55 115 17 0 109 -111 109 -132 0 -41 -15
-52 -69 -51 -28 0 -51 -2 -51 -6 0 -3 13 -13 29 -23 49 -27 58 -79 32 -182
-11 -47 -21 -88 -21 -91 0 -14 36 0 146 55 65 32 139 66 164 75 66 23 80 40
80 98 0 41 -78 335 -107 407 -10 25 -11 141 0 201 8 53 7 61 -26 131 -33 73
-36 76 -111 117 -42 23 -101 64 -130 90 -53 48 -161 131 -170 131 -3 0 -15
-21 -26 -47z"/>
<path d="M4965 4841 c-19 -37 -13 -52 28 -76 85 -50 97 -102 46 -198 -17 -32
-28 -61 -25 -64 9 -10 104 18 119 35 8 9 18 27 21 38 5 15 18 24 44 29 67 12
76 37 43 111 -18 39 -21 41 -74 47 -66 6 -125 35 -160 77 l-26 31 -16 -30z"/>
<path d="M8240 4855 c-102 -29 -186 -81 -262 -163 -47 -50 -118 -153 -118
-171 0 -5 35 -12 78 -16 91 -8 261 -33 273 -41 17 -10 204 -53 209 -47 3 2 8
50 11 106 4 56 12 153 19 215 11 97 11 115 -1 123 -21 13 -157 9 -209 -6z"/>
<path d="M8650 4690 l0 -82 153 -288 152 -289 3 79 c8 226 -124 531 -280 641
l-28 20 0 -81z"/>
<path d="M6229 4732 c-21 -15 -67 -65 -104 -111 -63 -79 -66 -85 -49 -97 51
-35 63 -67 44 -113 -20 -49 -126 -109 -166 -94 -8 3 -14 -1 -14 -11 0 -23 65
-22 75 2 6 16 7 16 16 0 11 -20 50 -23 81 -7 26 14 46 62 106 249 74 235 74
229 11 182z"/>
<path d="M8616 4188 c-10 -102 -36 -508 -36 -555 l0 -44 127 3 127 3 23 40
c13 22 28 56 34 75 11 35 7 43 -126 285 -75 138 -139 251 -140 253 -2 2 -6
-25 -9 -60z"/>
<path d="M5230 2975 c33 -70 56 -125 52 -123 -4 2 -36 18 -72 37 -247 129
-536 134 -774 15 -86 -43 -136 -80 -136 -100 0 -8 9 -28 21 -43 44 -60 -8
-101 -130 -101 l-69 0 -34 -47 c-19 -27 -51 -76 -70 -110 l-37 -62 214 -3
c240 -3 251 -6 289 -82 25 -51 10 -104 -41 -143 l-37 -28 -170 5 c-94 2 -209
5 -256 5 l-84 0 -7 -40 c-3 -22 -9 -58 -12 -79 l-6 -39 254 7 c244 7 255 6
294 -13 85 -44 84 -127 -3 -210 l-35 -34 -251 5 c-228 5 -250 4 -250 -11 0 -9
9 -56 19 -106 80 -387 366 -702 711 -785 105 -25 284 -27 379 -5 167 40 300
115 431 245 202 199 306 444 317 746 l6 141 43 -13 c36 -11 44 -11 44 0 0 33
-103 386 -153 521 -86 237 -219 527 -250 547 -6 3 -42 9 -81 13 -39 3 -95 8
-123 11 l-53 5 60 -126z m-52 -560 c45 -19 124 -95 156 -150 145 -249 115
-662 -62 -842 -61 -63 -112 -87 -182 -87 -70 0 -120 26 -184 94 -162 173 -197
548 -76 797 38 77 107 155 162 181 52 25 134 28 186 7z"/>
<path d="M5104 2001 c-76 -46 -85 -198 -15 -265 77 -73 171 -3 171 129 0 63
-17 103 -56 134 -33 26 -60 26 -100 2z"/>
<path d="M8541 2939 c102 -282 129 -362 126 -365 -2 -2 -23 20 -46 49 -130
160 -322 241 -502 211 l-36 -6 -144 -409 -144 -409 -119 0 -119 0 7 -172 c11
-273 36 -409 95 -526 87 -171 229 -251 493 -274 220 -20 330 12 449 131 158
157 236 440 227 819 -4 164 -3 182 11 176 69 -28 101 -37 108 -31 9 9 -27 245
-68 452 -37 184 -101 381 -137 425 -27 31 -29 32 -135 37 l-107 5 41 -113z
m-63 -634 c70 -30 115 -91 151 -210 49 -158 35 -361 -35 -503 -46 -93 -94
-132 -165 -132 -42 0 -55 5 -90 37 -84 76 -130 215 -130 392 0 207 69 370 176
417 39 17 48 17 93 -1z"/>
<path d="M8430 1966 c-50 -54 -32 -198 26 -212 54 -14 89 32 89 117 0 99 -62
150 -115 95z"/>
<path d="M1843 2527 c-33 -53 -56 -143 -49 -194 3 -24 15 -66 27 -93 l21 -50
77 3 c94 3 164 -18 169 -51 2 -12 2 -22 -1 -22 -2 0 -73 13 -157 30 -85 16
-156 27 -159 25 -8 -9 30 -156 60 -227 36 -89 104 -189 169 -253 l51 -50 -7
60 c-5 45 -14 68 -35 92 -51 59 -52 163 -3 214 15 16 31 29 36 29 4 0 15 -14
23 -31 16 -29 15 -31 -14 -59 -74 -69 7 -183 97 -136 16 8 32 23 36 31 10 26
7 83 -4 90 -16 10 -12 23 10 35 16 9 22 6 35 -19 8 -17 15 -49 15 -72 0 -33
-6 -47 -32 -73 -18 -18 -38 -35 -45 -37 -8 -3 -13 -37 -14 -99 l-3 -95 65 -32
c133 -66 317 -86 459 -49 145 37 291 130 385 243 61 74 111 161 99 173 -5 4
-74 20 -154 34 -80 15 -297 57 -482 93 -297 58 -338 69 -338 85 0 16 18 24 45
18 5 -1 39 -2 75 -2 36 0 84 -3 108 -8 l42 -7 -21 34 c-46 74 -23 172 60 262
23 24 41 46 41 48 0 1 -26 3 -57 4 -32 0 -92 7 -133 15 -41 9 -120 18 -175 20
-57 3 -102 10 -106 16 -4 6 -29 15 -56 19 -26 3 -68 10 -93 14 -43 6 -46 5
-67 -28z"/>
<path d="M5904 1948 c17 -104 75 -205 154 -265 74 -56 165 -78 327 -78 132 0
143 1 190 27 63 32 135 108 170 179 27 53 65 153 65 171 0 6 -180 8 -456 6
l-456 -3 6 -37z"/>
</g>
</svg>
